# xmcd CD database file generated by Grip 2.96
#
# Track frame offsets:
#       150
#       10205
#       27231
#       39905
#       54829
#       72934
#       93647
#       114949
#       128204
#
# Disc length: 1929 seconds
#
# Revision: 0
# Processed by: cddbd v1.5.2PL0 Copyright (c) Steve Scherf et al.
# Submitted via: Grip 2.96
#
DISCID=6a078709
DTITLE=Silent Blues - Open For Business
DYEAR=2010
DGENRE=blues
TTITLE0=Cobwebs in the Radiator
TTITLE1=Stretch Limo
TTITLE2=Six Down, One More for the Road
TTITLE3=Bitter Lake Blues
TTITLE4=Flat Tire on I-5
TTITLE5=It's My Own
TTITLE6=Slide On Down
TTITLE7=Ghost Town Truckers
TTITLE8=Sharp Friulano
EXTD=
EXTT0=
EXTT1=
EXTT2=
EXTT3=
EXTT4=
EXTT5=
EXTT6=
EXTT7=
EXTT8=
PLAYORDER=
